<?xml version="1.0" encoding="utf-8"?>
<!-- Generator: Adobe Illustrator 25.4.8, SVG Export Plug-In . SVG Version: 6.00 Build 0)  -->
<svg version="1.1" id="a" xmlns="http://www.w3.org/2000/svg" xmlns:xlink="http://www.w3.org/1999/xlink" x="0px" y="0px"
	 viewBox="0 0 805 150" style="enable-background:new 0 0 805 150;" xml:space="preserve">
<style type="text/css">
	.st0{fill:none;stroke:#000000;}
	.st1{fill:#FFFFFF;}
	.st2{fill:#231F20;}
	.st3{fill:#CC3083;}
	.st4{fill:#1D3C34;}
	.st5{stroke:#000000;}
	.st6{fill:none;stroke:#FFFFFF;}
	.st7{fill-rule:evenodd;clip-rule:evenodd;}
	.st8{fill-rule:evenodd;clip-rule:evenodd;fill:#FFFFFF;}
	.st9{fill:none;stroke:#FFFFFF;stroke-width:2;}
	.st10{fill:none;stroke:#000000;stroke-width:2;}
	
		.st11{clip-path:url(#SVGID_00000120541737315718397610000000235830555383284869_);fill-rule:evenodd;clip-rule:evenodd;fill:#FFFFFF;}
</style>
<g>
	<path d="M81.2,106.9c2.9-0.1,5.3,2.2,5.4,5.1c0,0.1,0,0.1,0,0.2c0,3.1-2.4,6.3-5.4,6.3c-3,0-5.4-3.1-5.4-6.3
		c-0.1-2.9,2.2-5.3,5.1-5.3C81,106.9,81.1,106.9,81.2,106.9z"/>
	<path d="M71.6,130.5c0-5.3,4.3-9.6,9.6-9.6c5.3,0,9.6,4.3,9.6,9.6v2.1H71.6V130.5z"/>
</g>
<g>
	<path class="st0" d="M38.2,57.5c2.8-0.1,5.1,2.1,5.2,4.9c0,0.1,0,0.1,0,0.2c0,3-2.3,6-5.2,6c-2.9,0-5.2-3-5.2-6
		c-0.1-2.8,2.2-5.1,4.9-5.1C38.1,57.5,38.1,57.5,38.2,57.5z"/>
	<path class="st0" d="M29,80.2c0-5.1,4.1-9.2,9.2-9.2c5.1,0,9.2,4.1,9.2,9.2v2H29V80.2z"/>
</g>
<path class="st1" d="M657.5,113.2l6.5-7.6h-1.5l-5.6,6.6l-4.5-6.6h-5.2l6.8,10l-6.8,8h1.5l5.9-7l4.8,7h5.2L657.5,113.2L657.5,113.2z
	 M655.4,115.7l-0.7-1l-5.5-7.9h2.4l4.4,6.4l0.7,1l5.8,8.3h-2.4L655.4,115.7L655.4,115.7L655.4,115.7z"/>
<path class="st2" d="M657.5,69.4l6.5-7.6h-1.5l-5.6,6.6l-4.5-6.6h-5.2l6.8,10l-6.8,8h1.5l5.9-7l4.8,7h5.2L657.5,69.4
	C657.5,69.4,657.5,69.4,657.5,69.4z M655.4,71.9l-0.7-1l-5.5-7.9h2.4l4.4,6.4l0.7,1l5.8,8.3h-2.4L655.4,71.9L655.4,71.9L655.4,71.9z
	"/>
<path class="st3" d="M539.6,23.2l-5,5c-0.5,0.5-1.3,0.5-1.8,0l-2.5-2.5c-0.5-0.5-0.5-1.3,0-1.8s1.3-0.5,1.8,0l1.6,1.6l4.1-4.1
	c0.5-0.5,1.3-0.5,1.8,0S540.1,22.7,539.6,23.2L539.6,23.2z"/>
<path class="st4" d="M535,14.8c-5.5,0-10,4.5-10,10s4.5,10,10,10s10-4.5,10-10S540.5,14.8,535,14.8z M539.6,23.2l-5,5
	c-0.5,0.5-1.3,0.5-1.8,0l-2.5-2.5c-0.5-0.5-0.5-1.3,0-1.8s1.3-0.5,1.8,0l1.6,1.6l4.1-4.1c0.5-0.5,1.3-0.5,1.8,0
	S540.1,22.7,539.6,23.2L539.6,23.2z"/>
<path class="st1" d="M539.6,23.2l-5,5c-0.5,0.5-1.3,0.5-1.8,0l-2.5-2.5c-0.5-0.5-0.5-1.3,0-1.8s1.3-0.5,1.8,0l1.6,1.6l4.1-4.1
	c0.5-0.5,1.3-0.5,1.8,0S540.1,22.7,539.6,23.2L539.6,23.2z"/>
<g id="b">
	<path class="st1" d="M740,20.2c0-0.7-0.2-1.5-0.4-2.2c-0.2-0.6-0.6-1.1-1-1.6c-0.4-0.5-1-0.8-1.6-1c-0.7-0.3-1.4-0.4-2.2-0.4
		c-1,0-1.3-0.1-3.7-0.1c-1.2,0-2.5,0-3.7,0.1c-0.7,0-1.5,0.2-2.2,0.4c-0.6,0.2-1.1,0.6-1.6,1c-0.5,0.4-0.8,1-1,1.6
		c-0.3,0.7-0.4,1.4-0.4,2.2c0,1-0.1,1.3-0.1,3.7c0,1.2,0,2.5,0.1,3.7c0,0.7,0.2,1.5,0.4,2.2c0.2,0.6,0.6,1.1,1,1.6
		c0.4,0.5,1,0.8,1.6,1c0.7,0.3,1.4,0.4,2.2,0.4c1,0,1.3,0.1,3.7,0.1c1.2,0,2.5,0,3.7-0.1c0.7,0,1.5-0.2,2.2-0.4
		c1.2-0.5,2.1-1.4,2.6-2.6c0.3-0.7,0.4-1.4,0.4-2.2c0-1,0.1-1.3,0.1-3.7C740,21.4,740,21.1,740,20.2z M738.3,27.5
		c0,0.6-0.1,1.2-0.3,1.7c-0.3,0.8-0.9,1.4-1.7,1.7c-0.5,0.2-1.1,0.3-1.7,0.3c-0.9,0-1.2,0.1-3.6,0.1c-1.2,0-2.4,0-3.6-0.1
		c-0.6,0-1.2-0.1-1.7-0.3c-0.4-0.1-0.7-0.4-1-0.7c-0.3-0.3-0.5-0.6-0.7-1c-0.2-0.5-0.3-1.1-0.3-1.7c0-0.9-0.1-1.2-0.1-3.6
		c0-1.2,0-2.4,0.1-3.6c0-0.6,0.1-1.2,0.3-1.7c0.1-0.4,0.4-0.7,0.7-1c0.3-0.3,0.6-0.5,1-0.7c0.5-0.2,1.1-0.3,1.7-0.3h3.6
		c1.2,0,2.4,0,3.6,0.1c0.6,0,1.2,0.1,1.7,0.3c0.4,0.1,0.7,0.4,1,0.7c0.3,0.3,0.5,0.6,0.7,1c0.2,0.5,0.3,1.1,0.3,1.7
		c0,0.9,0.1,1.2,0.1,3.6C738.4,25.2,738.4,26.3,738.3,27.5z"/>
	<path class="st1" d="M735.8,18c-0.6,0-1.1,0.5-1.1,1.1s0.5,1.1,1.1,1.1s1.1-0.5,1.1-1.1l0,0c0-0.6-0.4-1.1-1-1.1
		C735.9,18,735.8,18,735.8,18z"/>
	<path class="st1" d="M731,19.3L731,19.3c-2.5,0-4.6,2-4.6,4.6v0c0,2.5,2.1,4.6,4.6,4.6c2.5,0,4.6-2,4.6-4.6v0c0-2.5-2-4.6-4.5-4.6
		H731z M734,23.9c0,1.7-1.3,3-3,3s-3-1.3-3-3s1.3-3,3-3c1.6,0,3,1.3,3,2.9V23.9z"/>
</g>
<path id="c" class="st1" d="M772.2,14.9c0.3,2.6,1.7,4.1,4.2,4.2V22c-1.5,0.1-3-0.3-4.2-1.2v5.4c0,6.8-7.4,9-10.4,4.1
	c-1.9-3.1-0.7-8.7,5.4-8.9v3c-0.5,0.1-1,0.2-1.4,0.4c-1.3,0.3-2.2,1.5-1.9,2.9c0,0,0,0,0,0l0,0c0.4,2.9,5.8,3.8,5.4-1.9V14.9
	L772.2,14.9L772.2,14.9L772.2,14.9z"/>
<path id="d" class="st1" d="M702.1,23.9c0-5-4.1-9.1-9.1-9.1s-9.1,4.1-9.1,9.1c0,4.4,3.2,8.2,7.6,8.9v-6.3h-2.3v-2.6h2.3v-2
	c-0.2-1.7,1.1-3.3,2.8-3.5c0,0,0.1,0,0.1,0h0.6c0.7,0,1.3,0.1,2,0.2v2.2h-1.1c-0.7-0.1-1.4,0.4-1.5,1.1v2h2.5l-0.4,2.6h-2.1v6.3
	C698.8,32.2,702.2,28.4,702.1,23.9L702.1,23.9L702.1,23.9z"/>
<g id="e">
	<path class="st2" d="M740,67.2c0-0.7-0.2-1.5-0.4-2.2c-0.2-0.6-0.6-1.1-1-1.6c-0.4-0.5-1-0.8-1.6-1c-0.7-0.3-1.4-0.4-2.2-0.4
		c-1,0-1.3-0.1-3.7-0.1c-1.2,0-2.5,0-3.7,0.1c-0.7,0-1.5,0.2-2.2,0.4c-0.6,0.2-1.1,0.6-1.6,1c-0.5,0.4-0.8,1-1,1.6
		c-0.3,0.7-0.4,1.4-0.4,2.2c0,1-0.1,1.3-0.1,3.7c0,1.2,0,2.5,0.1,3.7c0,0.7,0.2,1.5,0.4,2.2c0.2,0.6,0.6,1.1,1,1.6
		c0.4,0.5,1,0.8,1.6,1c0.7,0.3,1.4,0.4,2.2,0.4c1,0,1.3,0.1,3.7,0.1c1.2,0,2.5,0,3.7-0.1c0.7,0,1.5-0.2,2.2-0.4
		c1.2-0.5,2.1-1.4,2.6-2.6c0.3-0.7,0.4-1.4,0.4-2.2c0-1,0.1-1.3,0.1-3.7C740,68.4,740,68.1,740,67.2z M738.3,74.5
		c0,0.6-0.1,1.2-0.3,1.7c-0.3,0.8-0.9,1.4-1.7,1.7c-0.5,0.2-1.1,0.3-1.7,0.3c-0.9,0-1.2,0.1-3.6,0.1c-1.2,0-2.4,0-3.6-0.1
		c-0.6,0-1.2-0.1-1.7-0.3c-0.4-0.1-0.7-0.4-1-0.7c-0.3-0.3-0.5-0.6-0.7-1c-0.2-0.5-0.3-1.1-0.3-1.7c0-0.9-0.1-1.2-0.1-3.6
		c0-1.2,0-2.4,0.1-3.6c0-0.6,0.1-1.2,0.3-1.7c0.1-0.4,0.4-0.7,0.7-1c0.3-0.3,0.6-0.5,1-0.7c0.5-0.2,1.1-0.3,1.7-0.3h3.6
		c1.2,0,2.4,0,3.6,0.1c0.6,0,1.2,0.1,1.7,0.3c0.4,0.1,0.7,0.4,1,0.7c0.3,0.3,0.5,0.6,0.7,1c0.2,0.5,0.3,1.1,0.3,1.7
		c0,0.9,0.1,1.2,0.1,3.6C738.4,72.2,738.4,73.3,738.3,74.5z"/>
	<path class="st2" d="M735.8,65c-0.6,0-1.1,0.5-1.1,1.1s0.5,1.1,1.1,1.1s1.1-0.5,1.1-1.1l0,0c0-0.6-0.4-1.1-1-1.1
		C735.9,65,735.8,65,735.8,65z"/>
	<path class="st2" d="M731,66.3L731,66.3c-2.5,0-4.6,2-4.6,4.6v0c0,2.5,2.1,4.6,4.6,4.6c2.5,0,4.6-2,4.6-4.6v0c0-2.5-2-4.6-4.5-4.6
		C731.1,66.3,731,66.3,731,66.3z M734,70.9c0,1.7-1.3,3-3,3s-3-1.3-3-3s1.3-3,3-3c1.6,0,3,1.3,3,2.9V70.9z"/>
</g>
<path id="f" class="st2" d="M772.2,61.9c0.3,2.6,1.7,4.1,4.2,4.2V69c-1.5,0.1-3-0.3-4.2-1.2v5.4c0,6.8-7.4,9-10.4,4.1
	c-1.9-3.1-0.7-8.7,5.4-8.9v3c-0.5,0.1-1,0.2-1.4,0.4c-1.3,0.3-2.2,1.5-1.9,2.9c0,0,0,0,0,0l0,0c0.4,2.9,5.8,3.8,5.4-1.9V61.9H772.2
	L772.2,61.9L772.2,61.9z"/>
<path id="g" class="st2" d="M702.1,70.9c0-5-4.1-9.1-9.1-9.1s-9.1,4.1-9.1,9.1c0,4.4,3.2,8.2,7.6,8.9v-6.3h-2.3v-2.6h2.3v-2
	c-0.2-1.7,1.1-3.3,2.8-3.5c0,0,0.1,0,0.1,0h0.6c0.7,0,1.3,0.1,2,0.2v2.2h-1.1c-0.7-0.1-1.4,0.4-1.5,1.1v2h2.5l-0.4,2.6h-2.1v6.3
	C698.8,79.2,702.2,75.4,702.1,70.9L702.1,70.9L702.1,70.9z"/>
<path class="st2" d="M729.7,119.2v-5.4l4.7,2.7C734.4,116.5,729.7,119.2,729.7,119.2z M740.1,112.1c-0.2-0.8-0.8-1.4-1.6-1.6
	c-4.7-0.5-9.3-0.5-14,0c-0.8,0.2-1.4,0.8-1.6,1.6c-0.3,1.4-0.4,2.9-0.4,4.4c0,1.5,0.1,2.9,0.4,4.4c0.2,0.8,0.8,1.4,1.6,1.6
	c4.7,0.5,9.3,0.5,14,0c0.8-0.2,1.4-0.8,1.6-1.6c0.3-1.4,0.4-2.9,0.4-4.4C740.5,115,740.4,113.6,740.1,112.1"/>
<path class="st1" d="M767.3,119.2v-5.4l4.7,2.7C772,116.5,767.3,119.2,767.3,119.2z M777.8,112.1c-0.2-0.8-0.8-1.4-1.6-1.6
	c-4.7-0.5-9.3-0.5-14,0c-0.8,0.2-1.4,0.8-1.6,1.6c-0.3,1.4-0.4,2.9-0.4,4.4c0,1.5,0.1,2.9,0.4,4.4c0.2,0.8,0.8,1.4,1.6,1.6
	c4.7,0.5,9.3,0.5,14,0c0.8-0.2,1.4-0.8,1.6-1.6c0.3-1.4,0.4-2.9,0.4-4.4C778.2,115,778.1,113.6,777.8,112.1"/>
<g id="h">
	<path id="i" class="st4" d="M635.2,17.9h29.4v12h-29.4V17.9z"/>
	<path class="st1" d="M653.4,26.9l-2.1-6.4h1.5l1.8,5.7h-0.8l1.9-5.7h1.4l1.8,5.7h-0.7l1.9-5.7h1.4l-2.1,6.4h-1.6l-1.6-5h0.4l-1.7,5
		L653.4,26.9L653.4,26.9z"/>
	<path class="st1" d="M647.2,23.1h3.1v1.2h-3.1V23.1z M647.3,25.7h3.5v1.2h-5v-6.4h4.8v1.2h-3.4L647.3,25.7L647.3,25.7z"/>
	<path class="st1" d="M638.4,26.9v-6.4h1.2l3.8,4.6h-0.6v-4.6h1.5v6.4h-1.2l-3.8-4.6h0.6v4.6H638.4z"/>
</g>
<path class="st2" d="M497,96.5c-5,0-9,4.1-9,9.1s4,9.1,9,9.1s9.1-4.1,9.1-9.1S502,96.5,497,96.5z M497,112.8c-4,0-7.2-3.2-7.2-7.2
	s3.2-7.2,7.2-7.2s7.2,3.2,7.2,7.2S501,112.8,497,112.8z"/>
<path class="st2" d="M496.7,100.4L496.7,100.4L496.7,100.4l-0.1,5.2c0,0.3,0.2,0.5,0.5,0.5l5.1-0.4l0.1,0l0-0.1
	c-0.1-0.5-0.5-1-1.1-0.9l-3.5,0.3v-3.5C497.7,100.9,497.3,100.4,496.7,100.4L496.7,100.4z"/>
<path class="st2" d="M502.4,105.7l-0.1,0l-5.1,0.4c-0.1,0-0.3,0-0.4-0.1s-0.2-0.2-0.2-0.4l0-5.2l0.1,0c0.6,0,1.1,0.5,1.1,1.1v3.4
	l3.4-0.3c0.6,0,1.1,0.4,1.2,1L502.4,105.7L502.4,105.7z M496.7,100.5l0,5.1c0,0.1,0,0.2,0.1,0.3s0.2,0.1,0.3,0.1l5.1-0.4
	c-0.1-0.5-0.5-0.9-1-0.9l-3.5,0.3v-3.6C497.7,100.9,497.2,100.5,496.7,100.5L496.7,100.5z"/>
<path class="st1" d="M612.4,116.1c-0.1,0-0.2-0.1-0.2-0.1c-0.1-2.6-1.5-4-3.9-4c0,0,0,0,0,0c-1.4,0-2.6,0.6-3.3,1.7l1.3,0.9
	c0.5-0.8,1.4-1,2-1c0,0,0,0,0,0c0.8,0,1.4,0.2,1.7,0.7c0.3,0.3,0.5,0.8,0.5,1.3c-0.7-0.1-1.4-0.2-2.2-0.1c-2.2,0.1-3.7,1.4-3.6,3.2
	c0,0.9,0.5,1.7,1.3,2.2c0.7,0.4,1.5,0.6,2.4,0.6c1.2-0.1,2.1-0.5,2.7-1.3c0.5-0.6,0.8-1.4,0.9-2.4c0.6,0.3,1,0.8,1.2,1.3
	c0.4,0.9,0.4,2.4-0.8,3.6c-1.1,1.1-2.3,1.5-4.3,1.5c-2.1,0-3.8-0.7-4.8-2c-1-1.3-1.5-3.1-1.5-5.4c0-2.3,0.5-4.1,1.5-5.4
	c1.1-1.3,2.7-2,4.8-2c2.2,0,3.8,0.7,4.9,2c0.5,0.7,0.9,1.5,1.2,2.5l1.5-0.4c-0.3-1.2-0.8-2.2-1.5-3.1c-1.4-1.7-3.4-2.6-6.1-2.6h0
	c-2.6,0-4.7,0.9-6,2.6c-1.2,1.5-1.8,3.7-1.9,6.4v0v0c0,2.7,0.6,4.8,1.9,6.4c1.4,1.7,3.4,2.6,6,2.6h0c2.3,0,4-0.6,5.3-2
	c1.8-1.8,1.7-4,1.1-5.4C614.3,117.4,613.5,116.6,612.4,116.1L612.4,116.1z M608.4,119.9c-1,0.1-2-0.4-2-1.3c0-0.7,0.5-1.5,2.1-1.6
	c0.2,0,0.4,0,0.5,0c0.6,0,1.1,0.1,1.6,0.2C610.4,119.4,609.3,119.8,608.4,119.9L608.4,119.9z"/>
<path class="st2" d="M576.4,115.8c-0.1,0-0.2-0.1-0.2-0.1c-0.1-2.6-1.5-4-3.9-4c0,0,0,0,0,0c-1.4,0-2.6,0.6-3.3,1.7l1.3,0.9
	c0.5-0.8,1.4-1,2-1c0,0,0,0,0,0c0.8,0,1.4,0.2,1.7,0.7c0.3,0.3,0.5,0.8,0.5,1.3c-0.7-0.1-1.4-0.2-2.2-0.1c-2.2,0.1-3.7,1.4-3.6,3.2
	c0,0.9,0.5,1.7,1.3,2.2c0.7,0.4,1.5,0.6,2.4,0.6c1.2-0.1,2.1-0.5,2.7-1.3c0.5-0.6,0.8-1.4,0.9-2.4c0.6,0.3,1,0.8,1.2,1.3
	c0.4,0.9,0.4,2.4-0.8,3.6c-1.1,1.1-2.3,1.5-4.3,1.5c-2.1,0-3.8-0.7-4.8-2c-1-1.3-1.5-3.1-1.5-5.4c0-2.3,0.5-4.1,1.5-5.4
	c1.1-1.3,2.7-2,4.8-2c2.2,0,3.8,0.7,4.9,2c0.5,0.7,0.9,1.5,1.2,2.5l1.5-0.4c-0.3-1.2-0.8-2.2-1.5-3.1c-1.4-1.7-3.4-2.6-6.1-2.6h0
	c-2.6,0-4.7,0.9-6,2.6c-1.2,1.5-1.8,3.7-1.9,6.4v0v0c0,2.7,0.6,4.8,1.9,6.4c1.4,1.7,3.4,2.6,6,2.6h0c2.3,0,4-0.6,5.3-2
	c1.8-1.8,1.7-4,1.1-5.4C578.3,117.2,577.5,116.4,576.4,115.8L576.4,115.8z M572.4,119.6c-1,0.1-2-0.4-2-1.3c0-0.7,0.5-1.5,2.1-1.6
	c0.2,0,0.4,0,0.5,0c0.6,0,1.1,0.1,1.6,0.2C574.5,119.2,573.4,119.6,572.4,119.6L572.4,119.6z"/>
<path class="st5" d="M134.4,111.6c-2.5-2.8-8.1-1.9-9.4,2.3c-1.3-5-6.9-5.1-9.4-2.3c-2.3,2.6-1.7,6.3,0.4,9c2.8,3.2,5.8,6.1,8.9,8.9
	h0c3.2-2.7,6.2-5.7,8.9-8.9C136,117.9,136.7,114.2,134.4,111.6z"/>
<g>
	<path class="st6" d="M38.2,107.9c2.8-0.1,5.1,2.1,5.2,4.9c0,0.1,0,0.1,0,0.2c0,3-2.3,6-5.2,6c-2.9,0-5.2-3-5.2-6
		c-0.1-2.8,2.2-5.1,4.9-5.1C38.1,107.9,38.1,107.9,38.2,107.9z"/>
	<path class="st6" d="M29,130.6c0-5.1,4.1-9.2,9.2-9.2c5.1,0,9.2,4.1,9.2,9.2v2H29V130.6z"/>
</g>
<g>
	<path class="st6" d="M38.6,11.5c2.8-0.1,5.1,2.1,5.2,4.9c0,0.1,0,0.1,0,0.2c0,3-2.3,6-5.2,6c-2.9,0-5.2-3-5.2-6
		c-0.1-2.8,2.2-5.1,4.9-5.1C38.5,11.5,38.5,11.5,38.6,11.5z"/>
	<path class="st6" d="M29.4,34.2c0-5.1,4.1-9.2,9.2-9.2c5.1,0,9.2,4.1,9.2,9.2v2H29.4V34.2z"/>
</g>
<path class="st0" d="M90.4,61.9c-2.5-2.8-8.1-1.8-9.4,2.3c-1.3-5-6.9-5.1-9.4-2.3c-2.3,2.6-1.7,6.3,0.4,9c2.8,3.2,5.7,6.1,8.9,8.9h0
	c3.2-2.7,6.2-5.7,8.9-8.9C92,68.1,92.7,64.5,90.4,61.9z"/>
<path class="st6" d="M90.4,15.9C87.9,13,82.3,14,81,18.2c-1.3-5-6.9-5.1-9.4-2.3c-2.3,2.6-1.7,6.3,0.4,9c2.8,3.2,5.7,6.1,8.9,8.9h0
	c3.2-2.7,6.2-5.7,8.9-8.9C92,22.1,92.7,18.4,90.4,15.9z"/>
<path class="st0" d="M129.4,63.1c0,0,0.1-6.5-4.8-6.5c-4.9,0-5.1,6.7-5.1,6.7 M133.3,63c1.4,18.1,1.4,18.6,1.4,18.6s-0.9,0-5.5,0
	c-4.6,0-13.9,0-13.9,0h-1l1.5-18.4L133.3,63z"/>
<path class="st6" d="M129.4,17c0,0,0.1-6.5-4.8-6.5c-4.9,0-5.1,6.7-5.1,6.7 M133.3,16.9c1.4,18.1,1.4,18.6,1.4,18.6s-0.9,0-5.5,0
	c-4.6,0-13.9,0-13.9,0h-1l1.5-18.4L133.3,16.9z"/>
<g>
	<path class="st1" d="M168.7,130h-0.4l-0.2-0.1c-3.2-2.8-6.2-5.8-8.9-8.9c-2.1-2.7-3.1-6.7-0.4-9.7c1.4-1.6,3.9-2.3,6-1.8
		c1.7,0.4,3,1.5,3.8,3.1c0.9-1.5,2.3-2.6,4.2-2.9c2.1-0.5,4.3,0.2,5.6,1.6c2.3,2.6,2.1,6.3-0.5,9.6c-2.7,3.2-5.8,6.2-9,9L168.7,130z
		 M163.3,110.3c-1.5,0-2.9,0.6-3.8,1.6c-2.2,2.5-1.4,6,0.5,8.4c2.6,3,5.5,5.9,8.5,8.6c3.1-2.6,5.9-5.5,8.5-8.6
		c1.7-2.2,2.8-5.7,0.5-8.3l0,0c-1-1.2-2.8-1.7-4.6-1.3c-1.9,0.4-3.4,1.7-3.9,3.5l-0.5,1.7l-0.4-1.7c-0.5-1.9-1.7-3.2-3.5-3.6
		C164.2,110.3,163.8,110.3,163.3,110.3z"/>
</g>
<g>
	<g>
		<path class="st7" d="M218.8,111.3c1.4,17.9,1.4,18.4,1.4,18.4s-0.9,0-5.4,0s-13.8,0-13.8,0h-1l1.5-18.3L218.8,111.3z"/>
		<path d="M220.8,130.4h-21.7l1.6-19.6l18.6-0.1l0,0.6c1.3,17.5,1.4,18.4,1.4,18.5V130.4z M200.6,129.1h18.8
			c-0.1-1.3-0.4-5.3-1.3-17.1l-16.2,0.1L200.6,129.1z"/>
	</g>
	<g>
		<path d="M205.6,111.6l-1,0c0.1-2.5,1.3-7.1,5.5-7.1c1.3,0,2.5,0.4,3.3,1.3c2,2,2,5.5,2,5.7l-1,0c0,0,0-3.2-1.7-4.9
			c-0.7-0.7-1.5-1-2.6-1C205.9,105.5,205.7,111.5,205.6,111.6z"/>
	</g>
</g>
<path class="st7" d="M218.5,61.1l0.4-0.4l-0.7-0.7l-0.4,0.4l-7.8,7.8l-7.8-7.8l-0.4-0.4l-0.7,0.7l0.4,0.4l7.8,7.8l-7.8,7.8l-0.4,0.4
	l0.7,0.7l0.4-0.4l7.8-7.8l7.8,7.8l0.4,0.4l0.7-0.7l-0.4-0.4l-7.8-7.8L218.5,61.1z"/>
<path class="st8" d="M218.5,15.1l0.4-0.4l-0.7-0.7l-0.4,0.4l-7.8,7.8l-7.8-7.8l-0.4-0.4l-0.7,0.7l0.4,0.4l7.8,7.8l-7.8,7.8l-0.4,0.4
	l0.7,0.7l0.4-0.4l7.8-7.8l7.8,7.8l0.4,0.4l0.7-0.7l-0.4-0.4l-7.8-7.8L218.5,15.1z"/>
<g>
	<path d="M253.6,117.2h-0.3l-0.1-0.1c-2.4-2.1-4.8-4.5-6.9-6.9c-1.6-2.1-2.4-5.2-0.3-7.4c1.1-1.2,3-1.8,4.7-1.4
		c1.3,0.3,2.3,1.2,2.9,2.4c0.7-1.2,1.8-2,3.2-2.3c1.7-0.3,3.3,0.1,4.3,1.3c1.7,2,1.6,4.9-0.4,7.4c-2.1,2.5-4.4,4.8-6.9,6.9
		L253.6,117.2z M249.5,102c-1.1,0-2.2,0.5-3,1.3c-1.7,1.9-1.1,4.6,0.4,6.4c2,2.3,4.2,4.5,6.6,6.6c2.4-2,4.6-4.2,6.6-6.6
		c1.3-1.7,2.2-4.4,0.4-6.4l0,0c-0.8-0.9-2.2-1.3-3.5-1c-1.5,0.3-2.6,1.3-3,2.7l-0.4,1.3l-0.3-1.3c-0.4-1.5-1.3-2.5-2.7-2.8
		C250.1,102.1,249.8,102,249.5,102z"/>
</g>
<g>
	<path d="M265.3,79.1h-26.7V78h26.7V79.1z M265.3,70.6h-26.7v-1.1h26.7V70.6z M265.3,62h-26.7V61h26.7V62z"/>
</g>
<g>
	<path class="st1" d="M266.6,33.1h-26.7V32h26.7V33.1z M266.6,24.5h-26.7v-1.1h26.7V24.5z M266.6,16h-26.7v-1.1h26.7V16z"/>
</g>
<g>
	<polygon class="st1" points="300.2,33.1 291.1,24 300.2,14.9 300.9,15.6 292.5,24 300.9,32.4 	"/>
</g>
<g>
	<polygon points="300.3,79.1 291.2,70 300.3,60.9 300.9,61.6 292.5,70 300.9,78.4 	"/>
</g>
<g>
	<g>
		<path class="st1" d="M338.2,32.4l-5.1-5.1c0.7-1,1.2-2.3,1.2-3.7c0-3.5-2.9-6.4-6.4-6.4c-3.5,0-6.4,2.9-6.4,6.4
			c0,3.5,2.9,6.4,6.4,6.4c1.8,0,3.5-0.8,4.7-2l5.4,5.4l0.6-0.6L338.2,32.4z M327.8,29.1c-3,0-5.5-2.5-5.5-5.5s2.5-5.5,5.5-5.5
			c3,0,5.5,2.5,5.5,5.5S330.8,29.1,327.8,29.1z"/>
	</g>
</g>
<g>
	<g>
		<path class="st2" d="M338.2,78.6l-5.1-5.1c0.7-1,1.2-2.3,1.2-3.7c0-3.5-2.9-6.4-6.4-6.4c-3.5,0-6.4,2.9-6.4,6.4
			c0,3.5,2.9,6.4,6.4,6.4c1.8,0,3.5-0.8,4.7-2l5.4,5.4l0.6-0.6L338.2,78.6z M327.8,75.2c-3,0-5.5-2.5-5.5-5.5s2.5-5.5,5.5-5.5
			c3,0,5.5,2.5,5.5,5.5S330.8,75.2,327.8,75.2z"/>
	</g>
</g>
<g>
	<path class="st4" d="M338.2,130.5l-5.1-5.1c0.7-1,1.2-2.3,1.2-3.7c0-3.5-2.9-6.4-6.4-6.4c-3.5,0-6.4,2.9-6.4,6.4
		c0,3.5,2.9,6.4,6.4,6.4c1.8,0,3.5-0.8,4.7-2l5.1,5.1l0.3,0.3l0.6-0.6L338.2,130.5z M327.8,127.2c-3,0-5.5-2.5-5.5-5.5
		c0-3,2.5-5.5,5.5-5.5c3,0,5.5,2.5,5.5,5.5C333.3,124.7,330.8,127.2,327.8,127.2z"/>
</g>
<path class="st9" d="M367,17.9v14 M374,24.9h-14"/>
<path class="st10" d="M367,63.9v14 M374,70.9h-14"/>
<path class="st10" d="M409,71.4h-14"/>
<g>
	<g>
		<rect x="394.8" y="106.5" width="16" height="1.2"/>
	</g>
	<g>
		<circle cx="399.1" cy="107.1" r="1.6"/>
	</g>
	<g>
		<rect x="394.8" y="101" width="16" height="1.2"/>
	</g>
	<g>
		<circle cx="406.5" cy="101.6" r="1.6"/>
	</g>
</g>
<path class="st9" d="M409,25.4h-14"/>
<g>
	<defs>
		<rect id="SVGID_1_" x="396.6" y="122.8" width="73" height="17.4"/>
	</defs>
	<clipPath id="SVGID_00000135668636205980190310000003553572878752088195_">
		<use xlink:href="#SVGID_1_"  style="overflow:visible;"/>
	</clipPath>
	
		<path style="clip-path:url(#SVGID_00000135668636205980190310000003553572878752088195_);fill-rule:evenodd;clip-rule:evenodd;fill:#FFFFFF;" d="
		M418.5,140L418.5,140h-1.7h-0.1V140v-3.1v-0.1h0.1h0.5h0.1v0.1v2.6h1.1h0.1v0.1V140L418.5,140z"/>
	
		<path style="clip-path:url(#SVGID_00000135668636205980190310000003553572878752088195_);fill-rule:evenodd;clip-rule:evenodd;fill:#FFFFFF;" d="
		M422.9,140.1c-0.4,0-0.9-0.2-1.2-0.5c-0.3-0.3-0.5-0.7-0.5-1.2c0-0.5,0.2-0.9,0.5-1.2c0.3-0.3,0.7-0.5,1.2-0.5
		c0.5,0,0.9,0.2,1.2,0.5c0.3,0.3,0.5,0.7,0.5,1.2c0,0.5-0.2,0.9-0.5,1.2C423.8,139.9,423.4,140.1,422.9,140.1z M422.9,137.4
		c-0.1,0-0.3,0-0.4,0.1c-0.1,0.1-0.2,0.1-0.3,0.2c-0.2,0.2-0.3,0.5-0.3,0.8c0,0.3,0.1,0.6,0.3,0.8c0.1,0.1,0.2,0.2,0.3,0.2
		c0.1,0.1,0.3,0.1,0.4,0.1c0.3,0,0.5-0.1,0.7-0.3c0.1-0.1,0.2-0.2,0.2-0.4c0.1-0.1,0.1-0.3,0.1-0.4c0-0.3-0.1-0.6-0.3-0.8
		c-0.1-0.1-0.2-0.2-0.3-0.2C423.2,137.4,423.1,137.4,422.9,137.4z"/>
	
		<path style="clip-path:url(#SVGID_00000135668636205980190310000003553572878752088195_);fill-rule:evenodd;clip-rule:evenodd;fill:#FFFFFF;" d="
		M430.6,140.2L430.6,140.2l-2.1-2c-0.1-0.1-0.1-0.1-0.2-0.2v2h-0.6v-3.4l0.1,0.1l1.9,1.9c0.1,0.1,0.2,0.2,0.2,0.3v-2h0.6V140.2z"/>
	
		<path style="clip-path:url(#SVGID_00000135668636205980190310000003553572878752088195_);fill-rule:evenodd;clip-rule:evenodd;fill:#FFFFFF;" d="
		M434.8,140H434v-3.2h0.7c0.6,0,1,0,1.4,0.3c0.4,0.3,0.6,0.7,0.6,1.3c0,0.6-0.2,1-0.6,1.3C435.7,140,435.4,140,434.8,140z
		 M434.6,139.5h0.1l0.1,0h0.1c0.3,0,0.6,0,0.8-0.2c0.2-0.2,0.3-0.5,0.3-0.8c0-0.4-0.1-0.7-0.3-0.8c-0.2-0.2-0.5-0.2-0.8-0.2h-0.1
		l-0.1,0h-0.1V139.5z"/>
	
		<path style="clip-path:url(#SVGID_00000135668636205980190310000003553572878752088195_);fill-rule:evenodd;clip-rule:evenodd;fill:#FFFFFF;" d="
		M441.4,140.1c-0.4,0-0.9-0.2-1.2-0.5c-0.3-0.3-0.5-0.7-0.5-1.2c0-0.5,0.2-0.9,0.5-1.2c0.3-0.3,0.7-0.5,1.2-0.5
		c0.5,0,0.9,0.2,1.2,0.5c0.3,0.3,0.5,0.7,0.5,1.2c0,0.2,0,0.4-0.1,0.6c-0.1,0.2-0.2,0.4-0.4,0.5
		C442.3,139.9,441.8,140.1,441.4,140.1z M441.4,137.4c-0.1,0-0.3,0-0.4,0.1c-0.1,0.1-0.2,0.1-0.3,0.2c-0.2,0.2-0.3,0.5-0.3,0.8
		c0,0.3,0.1,0.6,0.3,0.8c0.1,0.1,0.2,0.2,0.3,0.2s0.3,0.1,0.4,0.1c0.1,0,0.3,0,0.4-0.1s0.2-0.1,0.3-0.2c0.1-0.1,0.2-0.2,0.2-0.4
		c0.1-0.1,0.1-0.3,0.1-0.4c0-0.3-0.1-0.6-0.3-0.8c-0.1-0.1-0.2-0.2-0.3-0.2C441.7,137.4,441.5,137.4,441.4,137.4z"/>
	
		<path style="clip-path:url(#SVGID_00000135668636205980190310000003553572878752088195_);fill-rule:evenodd;clip-rule:evenodd;fill:#FFFFFF;" d="
		M449.1,140.2L449.1,140.2l-2.1-2c-0.1-0.1-0.1-0.1-0.2-0.2v2h-0.6v-3.4l0.1,0.1l1.9,1.9c0.1,0.1,0.2,0.2,0.2,0.3v-2h0.6V140.2z"/>
	
		<path style="clip-path:url(#SVGID_00000135668636205980190310000003553572878752088195_);fill-rule:evenodd;clip-rule:evenodd;fill:#FFFFFF;" d="
		M398.9,130.6L398.9,130.6H398H398v-0.1v-6.3h-1.3h-0.1v-0.1v-1v-0.1h0.1h3.5h0.1v0.1v1v0.1h-0.1h-1.3V130.6L398.9,130.6z"/>
	
		<path style="clip-path:url(#SVGID_00000135668636205980190310000003553572878752088195_);fill-rule:evenodd;clip-rule:evenodd;fill:#FFFFFF;" d="
		M408.4,130.6L408.4,130.6h-2.9h-0.1v-0.1v-7.3v-0.1h0.1h2.9h0.1v0.1v1v0.1h-0.1h-2v1.7h2h0.1v0.1v1v0.1h-0.1h-2v2.3h2h0.1v0.1
		V130.6L408.4,130.6z"/>
	
		<path style="clip-path:url(#SVGID_00000135668636205980190310000003553572878752088195_);fill-rule:evenodd;clip-rule:evenodd;fill:#FFFFFF;" d="
		M415.2,130.6l-0.1,0h-1.3v-7.4h1.2c1,0,1.7,0,2.4,0.7c0.6,0.7,0.9,1.7,0.9,3c0,1.3-0.3,2.3-0.9,3
		C416.8,130.6,416.1,130.6,415.2,130.6z M414.8,129.5h0.2c0.1,0,0.1,0,0.2,0c0.1,0,0.1,0,0.2,0c0.5,0,1,0,1.3-0.5
		c0.4-0.5,0.6-1.2,0.6-2.1c0-0.9-0.2-1.6-0.6-2.1c-0.4-0.4-0.8-0.5-1.4-0.5l-0.1,0l-0.2,0h-0.2V129.5z"/>
	
		<path style="clip-path:url(#SVGID_00000135668636205980190310000003553572878752088195_);fill-rule:evenodd;clip-rule:evenodd;fill:#FFFFFF;" d="
		M431.8,130.6h-1.4v-7.4h1.3c0.5,0,1,0,1.3,0.4c0.3,0.3,0.5,0.9,0.5,1.6c0,0.7-0.2,1.3-0.6,1.5c0.5,0.2,0.9,0.9,0.9,1.8
		c0,0.6-0.2,1.2-0.4,1.6C433.1,130.6,432.6,130.6,431.8,130.6z M431.4,129.5h0.2c0.5,0,0.8,0,1-0.2c0.2-0.2,0.3-0.5,0.3-0.9
		c0-0.4-0.1-0.8-0.4-1c-0.2-0.1-0.4-0.2-0.6-0.2c0,0-0.1,0-0.1,0c0,0-0.1,0-0.1,0h-0.2V129.5z M431.4,126.3h0.3c0.8,0,1-0.3,1-1
		c0-0.9-0.3-1-1-1h-0.3V126.3z"/>
	
		<path style="clip-path:url(#SVGID_00000135668636205980190310000003553572878752088195_);fill-rule:evenodd;clip-rule:evenodd;fill:#FFFFFF;" d="
		M443.6,130.6h-1l0,0l-0.6-1.8h-1.9l-0.6,1.8l0,0h-1l0-0.1l2.5-7.6l0.1-0.2l0.1,0.2L443.6,130.6L443.6,130.6z M440.4,127.7h1.3
		c0,0-0.6-1.9-0.6-2.2C441,125.7,440.4,127.7,440.4,127.7z"/>
	
		<path style="clip-path:url(#SVGID_00000135668636205980190310000003553572878752088195_);fill-rule:evenodd;clip-rule:evenodd;fill:#FFFFFF;" d="
		M452.6,130.6L452.6,130.6h-1.2h0l0,0l-1.9-3.5v3.5v0.1h-0.1h-0.8h-0.1v-0.1v-7.3v-0.1h0.1h0.8h0.1v0.1v2.8l1.7-2.9l0,0h0h1h0.1
		l-0.1,0.1l-2,3.2L452.6,130.6L452.6,130.6z"/>
	
		<path style="clip-path:url(#SVGID_00000135668636205980190310000003553572878752088195_);fill-rule:evenodd;clip-rule:evenodd;fill:#FFFFFF;" d="
		M460.6,130.6L460.6,130.6h-2.9h-0.1v-0.1v-7.3v-0.1h0.1h2.9h0.1v0.1v1v0.1h-0.1h-2v1.7h2h0.1v0.1v1v0.1h-0.1h-2v2.3h2h0.1v0.1
		V130.6L460.6,130.6z"/>
	
		<path style="clip-path:url(#SVGID_00000135668636205980190310000003553572878752088195_);fill-rule:evenodd;clip-rule:evenodd;fill:#FFFFFF;" d="
		M469.7,130.6h-1.1l0,0l-1.7-3.2h0v3.3H466v-7.4h1.2c0.6,0,1,0.1,1.3,0.4c0.3,0.4,0.5,1,0.5,1.6c0,1.2-0.4,1.8-1.1,2L469.7,130.6
		L469.7,130.6z M466.9,126.3L466.9,126.3c0.8,0,1.1-0.1,1.1-0.9c0-0.9-0.3-1-1-1h-0.1V126.3z"/>
</g>
<g>
	<polygon class="st1" points="429.9,19 436.1,25.2 429.9,31.4 429.4,30.9 435.1,25.2 429.4,19.5 	"/>
</g>
<g>
	<polygon points="429.8,64.9 436,71.1 429.8,77.3 429.3,76.8 435,71.1 429.3,65.4 	"/>
</g>
<g>
	<polygon points="469.4,67.7 463.2,73.9 457,67.7 457.5,67.3 463.2,73 468.9,67.3 	"/>
</g>
<g>
	<g>
		<rect x="455.8" y="106.5" class="st4" width="16" height="1.2"/>
	</g>
	<g>
		<circle class="st4" cx="460.1" cy="107.1" r="1.6"/>
	</g>
	<g>
		<rect x="455.8" y="101" class="st4" width="16" height="1.2"/>
	</g>
	<g>
		<circle class="st4" cx="467.5" cy="101.6" r="1.6"/>
	</g>
</g>
<g>
	<polygon class="st1" points="469.4,21.7 463.2,27.9 457,21.7 457.5,21.2 463.2,26.9 468.9,21.2 	"/>
</g>
<path class="st7" d="M503.7,64.7l0.3-0.3l-0.6-0.6l-0.3,0.3l-6.2,6.2l-6.1-6.1l-0.3-0.3l-0.6,0.6l0.3,0.3l6.1,6.1l-6.2,6.1l-0.3,0.3
	l0.6,0.6l0.3-0.3l6.2-6.1l6.2,6.2l0.3,0.3l0.6-0.6l-0.3-0.3l-6.2-6.2L503.7,64.7z"/>
<path class="st8" d="M503.7,18.6l0.3-0.3l-0.6-0.6l-0.3,0.3l-6.2,6.2l-6.1-6.1l-0.3-0.3l-0.6,0.6l0.3,0.3l6.1,6.1l-6.2,6.1l-0.3,0.3
	l0.6,0.6l0.3-0.3l6.2-6.1l6.2,6.2l0.3,0.3l0.6-0.6l-0.3-0.3l-6.2-6.2L503.7,18.6z"/>
<g>
	<g>
		<path class="st7" d="M577.7,66.9c0.9,11.5,0.9,11.8,0.9,11.8s-0.6,0-3.5,0s-8.9,0-8.9,0h-0.7l1-11.7L577.7,66.9z"/>
		<path d="M579.1,79.2h-13.9l1-12.6l12-0.1l0,0.4c0.9,11.2,0.9,11.8,0.9,11.9V79.2z M566.1,78.3h12.1c-0.1-0.9-0.2-3.4-0.8-11
			L567,67.4L566.1,78.3z"/>
	</g>
	<g>
		<path d="M569.3,67.1l-0.7,0c0-1.6,0.8-4.6,3.6-4.6c0.9,0,1.6,0.3,2.1,0.9c1.3,1.3,1.3,3.5,1.3,3.6l-0.7,0c0,0,0-2.1-1.1-3.2
			c-0.4-0.4-1-0.7-1.7-0.7C569.4,63.1,569.3,67,569.3,67.1z"/>
	</g>
</g>
<g>
	<g>
		<path class="st8" d="M577.7,20.9c0.9,11.5,0.9,11.8,0.9,11.8s-0.6,0-3.5,0s-8.9,0-8.9,0h-0.7l1-11.7L577.7,20.9z"/>
		<path class="st1" d="M579,33.1h-13.9l1-12.6l12-0.1l0,0.4c0.9,11.2,0.9,11.8,0.9,11.9V33.1z M566,32.3h12.1
			c-0.1-0.9-0.2-3.4-0.8-11l-10.4,0.1L566,32.3z"/>
	</g>
	<g>
		<path class="st1" d="M569.3,21l-0.7,0c0-1.6,0.8-4.6,3.6-4.6c0.9,0,1.6,0.3,2.1,0.9c1.3,1.3,1.3,3.5,1.3,3.6l-0.7,0
			c0,0,0-2.1-1.1-3.2c-0.4-0.4-1-0.7-1.7-0.7C569.4,17.1,569.3,21,569.3,21z"/>
	</g>
</g>
<g>
	<path d="M612.7,79.5h-9.2c-1,0-1.8-0.8-1.8-1.8V67.1h-1.3v-1.7c0-1,0.8-1.8,1.8-1.8h3.2v-0.4c0-1,0.8-1.8,1.8-1.8h1.9
		c1,0,1.8,0.8,1.8,1.8v0.4h3.2c1,0,1.8,0.8,1.8,1.8v1.7h-1.3v10.6C614.5,78.7,613.7,79.5,612.7,79.5z M602.4,67.1v10.6
		c0,0.6,0.5,1.1,1.1,1.1h9.2c0.6,0,1.1-0.5,1.1-1.1V67.1H602.4z M614.5,66.4h0.6v-0.9c0-0.6-0.5-1.1-1.1-1.1h-11.9
		c-0.6,0-1.1,0.5-1.1,1.1v0.9H614.5z M606.1,63.6h4v-0.4c0-0.6-0.5-1.1-1.1-1.1h-1.9c-0.6,0-1.1,0.5-1.1,1.1V63.6z M611.7,76.8H611
		v-7.7h0.7V76.8z M608.5,76.8h-0.7v-7.7h0.7V76.8z M605.2,76.8h-0.7v-7.7h0.7V76.8z"/>
</g>
<g>
	<path class="st1" d="M612.7,33.5h-9.2c-1,0-1.8-0.8-1.8-1.8V21.1h-1.3v-1.7c0-1,0.8-1.8,1.8-1.8h3.2v-0.4c0-1,0.8-1.8,1.8-1.8h1.9
		c1,0,1.8,0.8,1.8,1.8v0.4h3.2c1,0,1.8,0.8,1.8,1.8v1.7h-1.3v10.6C614.5,32.7,613.7,33.5,612.7,33.5z M602.4,21.1v10.6
		c0,0.6,0.5,1.1,1.1,1.1h9.2c0.6,0,1.1-0.5,1.1-1.1V21.1H602.4z M614.5,20.4h0.6v-0.9c0-0.6-0.5-1.1-1.1-1.1h-11.9
		c-0.6,0-1.1,0.5-1.1,1.1v0.9H614.5z M606.1,17.6h4v-0.4c0-0.6-0.5-1.1-1.1-1.1h-1.9c-0.6,0-1.1,0.5-1.1,1.1V17.6z M611.7,30.8H611
		v-7.7h0.7V30.8z M608.5,30.8h-0.7v-7.7h0.7V30.8z M605.2,30.8h-0.7v-7.7h0.7V30.8z"/>
</g>
<g>
	<path class="st8" d="M303.9,114.9c0.7-1.6,0.7-3.3,0-4.9l-0.3-0.6c-0.8-1.9-2.3-3.4-4.2-4.2l-0.1-0.1c-2-0.9-4.4-0.9-6.4,0
		l-0.1,0.1c-1.9,0.8-3.4,2.3-4.2,4.2l-0.3,0.6c-0.7,1.6-0.7,3.3,0,4.9c1,2.4,2.2,4.7,3.6,7l4.3,7.1l4.3-7.1
		C301.7,119.6,302.8,117.3,303.9,114.9z M296,116.3c2.1,0,3.9-1.7,3.9-3.9c0-2.1-1.7-3.9-3.9-3.9c-2.1,0-3.9,1.7-3.9,3.9
		C292.2,114.6,293.9,116.3,296,116.3z"/>
	<path class="st1" d="M303.9,110l0.4-0.2l0,0L303.9,110z M303.9,114.9l0.4,0.2l0,0L303.9,114.9z M303.6,109.3l-0.4,0.2v0
		L303.6,109.3z M299.4,105.1l-0.2,0.4l0,0L299.4,105.1z M299.2,105.1l0.2-0.4l0,0L299.2,105.1z M292.8,105.1l0.2,0.4l0,0
		L292.8,105.1z M292.7,105.1l-0.2-0.4l0,0L292.7,105.1z M288.5,109.3l0.4,0.2l0,0L288.5,109.3z M288.2,110l-0.4-0.2l0,0L288.2,110z
		 M288.2,114.9l-0.4,0.2h0L288.2,114.9z M291.8,121.8l0.4-0.3v0L291.8,121.8z M296,128.9l-0.4,0.3l0.4,0.7l0.4-0.7L296,128.9z
		 M300.3,121.8l0.4,0.3l0,0L300.3,121.8z M303.4,110.2c0.6,1.4,0.6,3.1,0,4.5l0.9,0.4c0.7-1.7,0.7-3.6,0-5.3L303.4,110.2z
		 M303.1,109.5l0.3,0.6l0.9-0.4l-0.3-0.6L303.1,109.5z M299.2,105.6c1.8,0.7,3.2,2.2,4,4l0.9-0.4c-0.9-2-2.5-3.6-4.5-4.5
		L299.2,105.6z M299,105.5l0.1,0.1l0.4-0.9l-0.1-0.1L299,105.5z M293,105.5c1.9-0.8,4.1-0.8,6,0l0.4-0.9c-2.2-0.9-4.6-0.9-6.8,0
		L293,105.5z M292.9,105.6l0.1-0.1l-0.4-0.9l-0.1,0.1L292.9,105.6z M288.9,109.5c0.8-1.8,2.2-3.2,4-4l-0.4-0.9
		c-2,0.8-3.6,2.4-4.5,4.5L288.9,109.5z M288.6,110.2l0.3-0.6l-0.9-0.4l-0.3,0.6L288.6,110.2z M288.6,114.7c-0.6-1.4-0.6-3.1,0-4.5
		l-0.9-0.4c-0.7,1.7-0.7,3.6,0,5.3L288.6,114.7z M292.2,121.6c-1.3-2.2-2.5-4.5-3.5-6.9l-0.9,0.4c1,2.4,2.2,4.8,3.6,7L292.2,121.6z
		 M296.4,128.7l-4.3-7.1l-0.8,0.5l4.3,7.1L296.4,128.7z M299.9,121.6l-4.3,7.1l0.8,0.5l4.3-7.1L299.9,121.6z M303.4,114.7
		c-1,2.4-2.2,4.7-3.5,6.9l0.8,0.5c1.4-2.3,2.6-4.6,3.6-7L303.4,114.7z M299.4,112.4c0,1.9-1.5,3.4-3.4,3.4v1c2.4,0,4.4-2,4.4-4.4
		H299.4z M296,109c1.9,0,3.4,1.5,3.4,3.4h1c0-2.4-2-4.4-4.4-4.4V109z M292.6,112.4c0-1.9,1.5-3.4,3.4-3.4v-1c-2.4,0-4.4,2-4.4,4.4
		H292.6z M296,115.8c-1.9,0-3.4-1.5-3.4-3.4h-1c0,2.4,2,4.4,4.4,4.4V115.8z"/>
</g>
<g>
	<path class="st7" d="M375,115.2c0.7-1.6,0.7-3.3,0-4.9l-0.3-0.6c-0.8-1.9-2.3-3.4-4.2-4.2l-0.1-0.1c-2-0.9-4.4-0.9-6.4,0l-0.1,0.1
		c-1.9,0.8-3.4,2.3-4.2,4.2l-0.3,0.6c-0.7,1.6-0.7,3.3,0,4.9c1,2.4,2.2,4.7,3.6,7l4.3,7.1l4.3-7.1C372.8,119.9,374,117.6,375,115.2z
		 M367.1,116.6c2.1,0,3.9-1.7,3.9-3.9c0-2.1-1.7-3.9-3.9-3.9s-3.9,1.7-3.9,3.9C363.3,114.9,365,116.6,367.1,116.6z"/>
	<path d="M375,110.3l0.4-0.2l0,0L375,110.3z M375,115.2l0.4,0.2l0,0L375,115.2z M374.7,109.6l-0.4,0.2v0L374.7,109.6z M370.5,105.4
		l-0.2,0.4l0,0L370.5,105.4z M370.3,105.3l0.2-0.4l0,0L370.3,105.3z M363.9,105.3l0.2,0.4l0,0L363.9,105.3z M363.8,105.4l-0.2-0.4
		l0,0L363.8,105.4z M359.6,109.6l0.4,0.2l0,0L359.6,109.6z M359.3,110.3l-0.4-0.2l0,0L359.3,110.3z M359.3,115.2l-0.4,0.2l0,0
		L359.3,115.2z M362.9,122.1l0.4-0.3l0,0L362.9,122.1z M367.1,129.2l-0.4,0.3l0.4,0.7l0.4-0.7L367.1,129.2z M371.4,122.1l0.4,0.3
		l0,0L371.4,122.1z M374.5,110.4c0.6,1.4,0.6,3.1,0,4.5l0.9,0.4c0.7-1.7,0.7-3.6,0-5.3L374.5,110.4z M374.3,109.8l0.3,0.6l0.9-0.4
		l-0.3-0.6L374.3,109.8z M370.3,105.8c1.8,0.7,3.2,2.2,4,4l0.9-0.4c-0.9-2-2.5-3.6-4.5-4.5L370.3,105.8z M370.2,105.8l0.1,0.1
		l0.4-0.9l-0.1-0.1L370.2,105.8z M364.1,105.8c1.9-0.8,4.1-0.8,6,0l0.4-0.9c-2.2-0.9-4.6-0.9-6.8,0L364.1,105.8z M364,105.8l0.1-0.1
		l-0.4-0.9l-0.1,0.1L364,105.8z M360,109.8c0.8-1.8,2.2-3.2,4-4l-0.4-0.9c-2,0.8-3.6,2.5-4.5,4.5L360,109.8z M359.7,110.4l0.3-0.6
		l-0.9-0.4l-0.3,0.6L359.7,110.4z M359.7,115c-0.6-1.4-0.6-3.1,0-4.5l-0.9-0.4c-0.7,1.7-0.7,3.6,0,5.3L359.7,115z M363.3,121.9
		c-1.3-2.2-2.5-4.5-3.5-6.9l-0.9,0.4c1,2.4,2.2,4.8,3.6,7L363.3,121.9z M367.6,129l-4.3-7.1l-0.8,0.5l4.3,7.1L367.6,129z M371,121.9
		l-4.3,7.1l0.8,0.5l4.3-7.1L371,121.9z M374.5,115c-1,2.4-2.2,4.7-3.5,6.9l0.8,0.5c1.4-2.3,2.6-4.6,3.6-7L374.5,115z M370.5,112.7
		c0,1.9-1.5,3.4-3.4,3.4v1c2.4,0,4.4-2,4.4-4.4H370.5z M367.1,109.3c1.9,0,3.4,1.5,3.4,3.4h1c0-2.4-2-4.4-4.4-4.4V109.3z
		 M363.7,112.7c0-1.9,1.5-3.4,3.4-3.4v-1c-2.4,0-4.4,2-4.4,4.4H363.7z M367.1,116.1c-1.9,0-3.4-1.5-3.4-3.4h-1c0,2.4,2,4.4,4.4,4.4
		V116.1z"/>
</g>
<g>
	<g>
		<path d="M168.5,83.1l-4.7-7.8c-1.4-2.3-2.6-4.6-3.6-7c-0.7-1.7-0.7-3.6,0-5.3l0.3-0.6c0.9-2,2.5-3.6,4.5-4.5l0.1-0.1
			c2.2-0.9,4.6-0.9,6.8,0l0.1,0.1c2,0.9,3.6,2.4,4.5,4.5l0.3,0.6c0.7,1.7,0.7,3.6,0,5.3c-1,2.4-2.2,4.8-3.6,7L168.5,83.1z
			 M168.5,58.1c-1,0-2.1,0.2-3,0.6l-0.1,0.1c-1.8,0.8-3.2,2.2-4,4l-0.3,0.6c-0.6,1.4-0.6,3.1,0,4.5c1,2.4,2.2,4.7,3.5,6.9l3.9,6.4
			l3.9-6.4c1.3-2.2,2.5-4.5,3.5-6.9c0.6-1.4,0.6-3.1,0-4.5l-0.3-0.6c-0.8-1.8-2.2-3.2-4-4l-0.1-0.1
			C170.6,58.3,169.5,58.1,168.5,58.1z"/>
	</g>
	<g>
		<path d="M168.5,69.4c-0.5,0-1-0.1-1.5-0.3c-1-0.4-1.7-1.1-2.1-2c-0.4-0.9-0.4-2,0-2.9c0.4-0.9,1.1-1.6,2-2c1-0.4,2.1-0.4,3.1,0
			c1,0.4,1.7,1.1,2.1,2l0,0c0.4,0.9,0.4,2,0,2.9c-0.4,0.9-1.1,1.6-2,2C169.6,69.3,169,69.4,168.5,69.4z M168.5,62.8
			c-0.4,0-0.8,0.1-1.1,0.2c-0.7,0.3-1.3,0.8-1.5,1.5c-0.3,0.7-0.3,1.5,0,2.2c0.3,0.7,0.8,1.2,1.5,1.5c0.8,0.3,1.6,0.3,2.3,0
			c0.7-0.3,1.3-0.8,1.5-1.5c0.3-0.7,0.3-1.5,0-2.2l0,0c-0.3-0.7-0.8-1.2-1.5-1.5C169.3,62.9,168.9,62.8,168.5,62.8z"/>
	</g>
</g>
<g>
	<g>
		<path class="st1" d="M168.4,37l-4.7-7.8c-1.4-2.3-2.6-4.6-3.6-7c-0.7-1.7-0.7-3.6,0-5.3l0.3-0.6c0.9-2,2.5-3.6,4.5-4.5l0.1-0.1
			c2.2-0.9,4.6-0.9,6.8,0l0.1,0.1c2,0.9,3.6,2.4,4.5,4.5l0.3,0.6c0.7,1.7,0.7,3.6,0,5.3c-1,2.4-2.2,4.8-3.6,7L168.4,37z M168.4,12
			c-1,0-2.1,0.2-3,0.6l-0.1,0.1c-1.8,0.8-3.2,2.2-4,4l-0.3,0.6c-0.6,1.4-0.6,3.1,0,4.5c1,2.4,2.2,4.7,3.5,6.9l3.9,6.4l3.9-6.4
			c1.3-2.2,2.5-4.5,3.5-6.9c0.6-1.4,0.6-3.1,0-4.5l-0.3-0.6c-0.8-1.8-2.2-3.2-4-4l-0.1-0.1C170.4,12.2,169.4,12,168.4,12z"/>
	</g>
	<g>
		<path class="st1" d="M168.3,23.3c-0.5,0-1-0.1-1.5-0.3c-1-0.4-1.7-1.1-2.1-2c-0.4-0.9-0.4-2,0-2.9c0.4-0.9,1.1-1.6,2-2
			c1-0.4,2.1-0.4,3.1,0c1,0.4,1.7,1.1,2.1,2l0,0c0.4,0.9,0.4,2,0,2.9c-0.4,0.9-1.1,1.6-2,2C169.4,23.2,168.9,23.3,168.3,23.3z
			 M168.3,16.8c-0.4,0-0.8,0.1-1.1,0.2c-0.7,0.3-1.3,0.8-1.5,1.5c-0.3,0.7-0.3,1.5,0,2.2c0.3,0.7,0.8,1.2,1.5,1.5
			c0.8,0.3,1.6,0.3,2.3,0c0.7-0.3,1.3-0.8,1.5-1.5c0.3-0.7,0.3-1.5,0-2.2l0,0c-0.3-0.7-0.8-1.2-1.5-1.5
			C169.2,16.8,168.7,16.8,168.3,16.8z"/>
	</g>
</g>
</svg>
